<!DOCTYPE svg PUBLIC "-//W3C//DTD SVG 1.1//EN" "http://www.w3.org/Graphics/SVG/1.1/DTD/svg11.dtd">
<!-- Uploaded to: SVG Repo, www.svgrepo.com, Transformed by: SVG Repo Mixer Tools -->
<svg width="800px" height="800px" viewBox="0 0 24 24" id="magicoon-Filled" xmlns="http://www.w3.org/2000/svg" fill="#000000">
<g id="SVGRepo_bgCarrier" stroke-width="0"/>
<g id="SVGRepo_tracerCarrier" stroke-linecap="round" stroke-linejoin="round"/>
<g id="SVGRepo_iconCarrier"> <defs> <style>.cls-1{fill:#87b8ea;}</style> </defs> <title>sort-descending</title> <g id="sort-descending-Filled"> <path id="sort-descending-Filled-2" data-name="sort-descending-Filled" class="cls-1" d="M12,2.5A9.5,9.5,0,1,0,21.5,12,9.509,9.509,0,0,0,12,2.5ZM13,17H11a1,1,0,0,1,0-2h2a1,1,0,0,1,0,2Zm1.5-4h-5a1,1,0,0,1,0-2h5a1,1,0,0,1,0,2ZM16,9H8A1,1,0,0,1,8,7h8a1,1,0,0,1,0,2Z"/> </g> </g>
</svg>