<svg fill="none" viewBox="0 0 24 24" xmlns="http://www.w3.org/2000/svg"><path clip-rule="evenodd" d="M12 3.75a8.25 8.25 0 0 0-6.972 12.663c.121.19.15.425.079.64l-.921 2.761 2.762-.92a.75.75 0 0 1 .639.078A8.207 8.207 0 0 0 12 20.25a8.212 8.212 0 0 0 3.666-.857.75.75 0 0 1 .668 1.343A9.713 9.713 0 0 1 12 21.75a9.708 9.708 0 0 1-4.908-1.323l-3.855 1.285a.75.75 0 0 1-.948-.95l1.285-3.854A9.708 9.708 0 0 1 2.25 12c0-5.385 4.365-9.75 9.75-9.75s9.75 4.365 9.75 9.75a9.713 9.713 0 0 1-1.014 4.334.75.75 0 1 1-1.343-.668A8.213 8.213 0 0 0 20.25 12 8.25 8.25 0 0 0 12 3.75Z" fill="#999999" fill-rule="evenodd" class="fill-000000"></path><path clip-rule="evenodd" d="M6.445 10.512a5.727 5.727 0 0 1 1.489-2.578 5.727 5.727 0 0 1 2.578-1.489.75.75 0 1 1 .387 1.45 4.227 4.227 0 0 0-1.904 1.1 4.227 4.227 0 0 0-1.1 1.904.75.75 0 0 1-1.45-.387Zm6.125-3.536a.75.75 0 0 1 .918-.531c.945.252 1.838.75 2.578 1.49a5.726 5.726 0 0 1 1.489 2.577.75.75 0 1 1-1.45.387 4.227 4.227 0 0 0-1.1-1.904 4.227 4.227 0 0 0-1.904-1.1.75.75 0 0 1-.531-.919ZM6.976 12.57a.75.75 0 0 1 .918.53 4.227 4.227 0 0 0 1.1 1.905 4.227 4.227 0 0 0 1.905 1.1.75.75 0 0 1-.387 1.45 5.727 5.727 0 0 1-2.578-1.49 5.727 5.727 0 0 1-1.49-2.577.75.75 0 0 1 .532-.918Zm5.594 4.454a.75.75 0 0 1 .53-.918 4.227 4.227 0 0 0 1.905-1.1 4.227 4.227 0 0 0 1.1-1.905.75.75 0 0 1 1.45.387 5.727 5.727 0 0 1-1.49 2.578 5.728 5.728 0 0 1-2.577 1.49.75.75 0 0 1-.918-.532Z" fill="#999999" fill-rule="evenodd" class="fill-000000"></path></svg>